<svg width="664" height="38" viewBox="0 0 664 38" fill="none" xmlns="http://www.w3.org/2000/svg">
<g id="lightsaber">
<g id="light-saber">
<rect id="outer-light" x="185" y="4" width="479" height="30" rx="15" fill="#00A2FD" fill-opacity="0.5"/>
<rect id="inner-light" x="185" y="14" width="465" height="10" rx="5" fill="white" fill-opacity="0.8"/>
</g>
<g id="saber-wrist">
<rect id="Rectangle 3" x="21.5" y="9.5" width="119" height="19" fill="#3C3C3C" stroke="black"/>
<rect id="Rectangle 10" x="141.5" y="12.5" width="9" height="13" fill="#B5A888" stroke="black"/>
<rect id="Rectangle 11" x="151.25" y="10.25" width="0.5" height="17.5" fill="#B5A888" stroke="black" stroke-width="0.5"/>
<rect id="Rectangle 12" x="152.5" y="7.5" width="1" height="23" fill="#B5A888" stroke="black"/>
<path id="Rectangle 13" d="M154.5 9.5H161C161.276 9.5 161.5 9.72386 161.5 10V28C161.5 28.2761 161.276 28.5 161 28.5H154.5V9.5Z" fill="#B5A888" stroke="black"/>
<rect id="Rectangle 14" x="162.5" y="14.5" width="13" height="9" fill="#BA857D" stroke="black"/>
<rect id="Rectangle 15" x="176.5" y="10.5" width="2" height="17" fill="#C4C4C4" stroke="black"/>
<path id="Rectangle 16" d="M180 6.5H186.5V31.5H180C179.724 31.5 179.5 31.2761 179.5 31V7C179.5 6.72386 179.724 6.5 180 6.5Z" fill="#C4C4C4" stroke="black"/>
<path id="Ellipse 1" d="M93.5 19C93.5 22.2901 93.2218 25.2543 92.7783 27.3833C92.5556 28.4519 92.2967 29.2836 92.0246 29.8361C91.888 30.1132 91.7606 30.2942 91.6535 30.3995C91.6015 30.4505 91.5619 30.4762 91.5365 30.4886C91.5132 30.5 91.5024 30.5 91.5 30.5C91.4976 30.5 91.4868 30.5 91.4635 30.4886C91.4381 30.4762 91.3985 30.4505 91.3465 30.3995C91.2394 30.2942 91.112 30.1132 90.9754 29.8361C90.7033 29.2836 90.4444 28.4519 90.2217 27.3833C89.7782 25.2543 89.5 22.2901 89.5 19C89.5 15.7099 89.7782 12.7457 90.2217 10.6167C90.4444 9.54808 90.7033 8.71637 90.9754 8.16395C91.112 7.88676 91.2394 7.70575 91.3465 7.60051C91.3985 7.54948 91.4381 7.52376 91.4635 7.5114C91.4868 7.50004 91.4976 7.5 91.5 7.5C91.5024 7.5 91.5132 7.50004 91.5365 7.5114C91.5619 7.52376 91.6015 7.54948 91.6535 7.60051C91.7606 7.70575 91.888 7.88676 92.0246 8.16395C92.2967 8.71637 92.5556 9.54808 92.7783 10.6167C93.2218 12.7457 93.5 15.7099 93.5 19Z" fill="#3C3C3C" stroke="black"/>
<path id="Ellipse 2" d="M96.5 19C96.5 22.2901 96.2218 25.2543 95.7783 27.3833C95.5556 28.4519 95.2967 29.2836 95.0246 29.8361C94.888 30.1132 94.7606 30.2942 94.6535 30.3995C94.6015 30.4505 94.5619 30.4762 94.5365 30.4886C94.5132 30.5 94.5024 30.5 94.5 30.5C94.4976 30.5 94.4868 30.5 94.4635 30.4886C94.4381 30.4762 94.3985 30.4505 94.3465 30.3995C94.2394 30.2942 94.112 30.1132 93.9754 29.8361C93.7033 29.2836 93.4444 28.4519 93.2217 27.3833C92.7782 25.2543 92.5 22.2901 92.5 19C92.5 15.7099 92.7782 12.7457 93.2217 10.6167C93.4444 9.54808 93.7033 8.71637 93.9754 8.16395C94.112 7.88676 94.2394 7.70575 94.3465 7.60051C94.3985 7.54948 94.4381 7.52376 94.4635 7.5114C94.4868 7.50004 94.4976 7.5 94.5 7.5C94.5024 7.5 94.5132 7.50004 94.5365 7.5114C94.5619 7.52376 94.6015 7.54948 94.6535 7.60051C94.7606 7.70575 94.888 7.88676 95.0246 8.16395C95.2967 8.71637 95.5556 9.54808 95.7783 10.6167C96.2218 12.7457 96.5 15.7099 96.5 19Z" fill="#3C3C3C" stroke="black"/>
<path id="Ellipse 3" d="M99.5 19C99.5 22.2901 99.2218 25.2543 98.7783 27.3833C98.5556 28.4519 98.2967 29.2836 98.0246 29.8361C97.888 30.1132 97.7606 30.2942 97.6535 30.3995C97.6015 30.4505 97.5619 30.4762 97.5365 30.4886C97.5132 30.5 97.5024 30.5 97.5 30.5C97.4976 30.5 97.4868 30.5 97.4635 30.4886C97.4381 30.4762 97.3985 30.4505 97.3465 30.3995C97.2394 30.2942 97.112 30.1132 96.9754 29.8361C96.7033 29.2836 96.4444 28.4519 96.2217 27.3833C95.7782 25.2543 95.5 22.2901 95.5 19C95.5 15.7099 95.7782 12.7457 96.2217 10.6167C96.4444 9.54808 96.7033 8.71637 96.9754 8.16395C97.112 7.88676 97.2394 7.70575 97.3465 7.60051C97.3985 7.54948 97.4381 7.52376 97.4635 7.5114C97.4868 7.50004 97.4976 7.5 97.5 7.5C97.5024 7.5 97.5132 7.50004 97.5365 7.5114C97.5619 7.52376 97.6015 7.54948 97.6535 7.60051C97.7606 7.70575 97.888 7.88676 98.0246 8.16395C98.2967 8.71637 98.5556 9.54808 98.7783 10.6167C99.2218 12.7457 99.5 15.7099 99.5 19Z" fill="#3C3C3C" stroke="black"/>
<path id="Ellipse 4" d="M102.5 19C102.5 22.2901 102.222 25.2543 101.778 27.3833C101.556 28.4519 101.297 29.2836 101.025 29.8361C100.888 30.1132 100.761 30.2942 100.653 30.3995C100.602 30.4505 100.562 30.4762 100.537 30.4886C100.513 30.5 100.502 30.5 100.5 30.5C100.498 30.5 100.487 30.5 100.463 30.4886C100.438 30.4762 100.398 30.4505 100.347 30.3995C100.239 30.2942 100.112 30.1132 99.9754 29.8361C99.7033 29.2836 99.4444 28.4519 99.2217 27.3833C98.7782 25.2543 98.5 22.2901 98.5 19C98.5 15.7099 98.7782 12.7457 99.2217 10.6167C99.4444 9.54808 99.7033 8.71637 99.9754 8.16395C100.112 7.88676 100.239 7.70575 100.347 7.60051C100.398 7.54948 100.438 7.52376 100.463 7.5114C100.487 7.50004 100.498 7.5 100.5 7.5C100.502 7.5 100.513 7.50004 100.537 7.5114C100.562 7.52376 100.602 7.54948 100.653 7.60051C100.761 7.70575 100.888 7.88676 101.025 8.16395C101.297 8.71637 101.556 9.54808 101.778 10.6167C102.222 12.7457 102.5 15.7099 102.5 19Z" fill="#3C3C3C" stroke="black"/>
<path id="Ellipse 5" d="M105.5 19C105.5 22.2901 105.222 25.2543 104.778 27.3833C104.556 28.4519 104.297 29.2836 104.025 29.8361C103.888 30.1132 103.761 30.2942 103.653 30.3995C103.602 30.4505 103.562 30.4762 103.537 30.4886C103.513 30.5 103.502 30.5 103.5 30.5C103.498 30.5 103.487 30.5 103.463 30.4886C103.438 30.4762 103.398 30.4505 103.347 30.3995C103.239 30.2942 103.112 30.1132 102.975 29.8361C102.703 29.2836 102.444 28.4519 102.222 27.3833C101.778 25.2543 101.5 22.2901 101.5 19C101.5 15.7099 101.778 12.7457 102.222 10.6167C102.444 9.54808 102.703 8.71637 102.975 8.16395C103.112 7.88676 103.239 7.70575 103.347 7.60051C103.398 7.54948 103.438 7.52376 103.463 7.5114C103.487 7.50004 103.498 7.5 103.5 7.5C103.502 7.5 103.513 7.50004 103.537 7.5114C103.562 7.52376 103.602 7.54948 103.653 7.60051C103.761 7.70575 103.888 7.88676 104.025 8.16395C104.297 8.71637 104.556 9.54808 104.778 10.6167C105.222 12.7457 105.5 15.7099 105.5 19Z" fill="#3C3C3C" stroke="black"/>
<path id="Ellipse 6" d="M108.5 19C108.5 22.2901 108.222 25.2543 107.778 27.3833C107.556 28.4519 107.297 29.2836 107.025 29.8361C106.888 30.1132 106.761 30.2942 106.653 30.3995C106.602 30.4505 106.562 30.4762 106.537 30.4886C106.513 30.5 106.502 30.5 106.5 30.5C106.498 30.5 106.487 30.5 106.463 30.4886C106.438 30.4762 106.398 30.4505 106.347 30.3995C106.239 30.2942 106.112 30.1132 105.975 29.8361C105.703 29.2836 105.444 28.4519 105.222 27.3833C104.778 25.2543 104.5 22.2901 104.5 19C104.5 15.7099 104.778 12.7457 105.222 10.6167C105.444 9.54808 105.703 8.71637 105.975 8.16395C106.112 7.88676 106.239 7.70575 106.347 7.60051C106.398 7.54948 106.438 7.52376 106.463 7.5114C106.487 7.50004 106.498 7.5 106.5 7.5C106.502 7.5 106.513 7.50004 106.537 7.5114C106.562 7.52376 106.602 7.54948 106.653 7.60051C106.761 7.70575 106.888 7.88676 107.025 8.16395C107.297 8.71637 107.556 9.54808 107.778 10.6167C108.222 12.7457 108.5 15.7099 108.5 19Z" fill="#3C3C3C" stroke="black"/>
<path id="Ellipse 7" d="M111.5 19C111.5 22.2901 111.222 25.2543 110.778 27.3833C110.556 28.4519 110.297 29.2836 110.025 29.8361C109.888 30.1132 109.761 30.2942 109.653 30.3995C109.602 30.4505 109.562 30.4762 109.537 30.4886C109.513 30.5 109.502 30.5 109.5 30.5C109.498 30.5 109.487 30.5 109.463 30.4886C109.438 30.4762 109.398 30.4505 109.347 30.3995C109.239 30.2942 109.112 30.1132 108.975 29.8361C108.703 29.2836 108.444 28.4519 108.222 27.3833C107.778 25.2543 107.5 22.2901 107.5 19C107.5 15.7099 107.778 12.7457 108.222 10.6167C108.444 9.54808 108.703 8.71637 108.975 8.16395C109.112 7.88676 109.239 7.70575 109.347 7.60051C109.398 7.54948 109.438 7.52376 109.463 7.5114C109.487 7.50004 109.498 7.5 109.5 7.5C109.502 7.5 109.513 7.50004 109.537 7.5114C109.562 7.52376 109.602 7.54948 109.653 7.60051C109.761 7.70575 109.888 7.88676 110.025 8.16395C110.297 8.71637 110.556 9.54808 110.778 10.6167C111.222 12.7457 111.5 15.7099 111.5 19Z" fill="#3C3C3C" stroke="black"/>
<path id="Ellipse 8" d="M114.5 19C114.5 22.2901 114.222 25.2543 113.778 27.3833C113.556 28.4519 113.297 29.2836 113.025 29.8361C112.888 30.1132 112.761 30.2942 112.653 30.3995C112.602 30.4505 112.562 30.4762 112.537 30.4886C112.513 30.5 112.502 30.5 112.5 30.5C112.498 30.5 112.487 30.5 112.463 30.4886C112.438 30.4762 112.398 30.4505 112.347 30.3995C112.239 30.2942 112.112 30.1132 111.975 29.8361C111.703 29.2836 111.444 28.4519 111.222 27.3833C110.778 25.2543 110.5 22.2901 110.5 19C110.5 15.7099 110.778 12.7457 111.222 10.6167C111.444 9.54808 111.703 8.71637 111.975 8.16395C112.112 7.88676 112.239 7.70575 112.347 7.60051C112.398 7.54948 112.438 7.52376 112.463 7.5114C112.487 7.50004 112.498 7.5 112.5 7.5C112.502 7.5 112.513 7.50004 112.537 7.5114C112.562 7.52376 112.602 7.54948 112.653 7.60051C112.761 7.70575 112.888 7.88676 113.025 8.16395C113.297 8.71637 113.556 9.54808 113.778 10.6167C114.222 12.7457 114.5 15.7099 114.5 19Z" fill="#3C3C3C" stroke="black"/>
<path id="Ellipse 9" d="M117.5 19C117.5 22.2901 117.222 25.2543 116.778 27.3833C116.556 28.4519 116.297 29.2836 116.025 29.8361C115.888 30.1132 115.761 30.2942 115.653 30.3995C115.602 30.4505 115.562 30.4762 115.537 30.4886C115.513 30.5 115.502 30.5 115.5 30.5C115.498 30.5 115.487 30.5 115.463 30.4886C115.438 30.4762 115.398 30.4505 115.347 30.3995C115.239 30.2942 115.112 30.1132 114.975 29.8361C114.703 29.2836 114.444 28.4519 114.222 27.3833C113.778 25.2543 113.5 22.2901 113.5 19C113.5 15.7099 113.778 12.7457 114.222 10.6167C114.444 9.54808 114.703 8.71637 114.975 8.16395C115.112 7.88676 115.239 7.70575 115.347 7.60051C115.398 7.54948 115.438 7.52376 115.463 7.5114C115.487 7.50004 115.498 7.5 115.5 7.5C115.502 7.5 115.513 7.50004 115.537 7.5114C115.562 7.52376 115.602 7.54948 115.653 7.60051C115.761 7.70575 115.888 7.88676 116.025 8.16395C116.297 8.71637 116.556 9.54808 116.778 10.6167C117.222 12.7457 117.5 15.7099 117.5 19Z" fill="#3C3C3C" stroke="black"/>
<path id="Ellipse 10" d="M120.5 19C120.5 22.2901 120.222 25.2543 119.778 27.3833C119.556 28.4519 119.297 29.2836 119.025 29.8361C118.888 30.1132 118.761 30.2942 118.653 30.3995C118.602 30.4505 118.562 30.4762 118.537 30.4886C118.513 30.5 118.502 30.5 118.5 30.5C118.498 30.5 118.487 30.5 118.463 30.4886C118.438 30.4762 118.398 30.4505 118.347 30.3995C118.239 30.2942 118.112 30.1132 117.975 29.8361C117.703 29.2836 117.444 28.4519 117.222 27.3833C116.778 25.2543 116.5 22.2901 116.5 19C116.5 15.7099 116.778 12.7457 117.222 10.6167C117.444 9.54808 117.703 8.71637 117.975 8.16395C118.112 7.88676 118.239 7.70575 118.347 7.60051C118.398 7.54948 118.438 7.52376 118.463 7.5114C118.487 7.50004 118.498 7.5 118.5 7.5C118.502 7.5 118.513 7.50004 118.537 7.5114C118.562 7.52376 118.602 7.54948 118.653 7.60051C118.761 7.70575 118.888 7.88676 119.025 8.16395C119.297 8.71637 119.556 9.54808 119.778 10.6167C120.222 12.7457 120.5 15.7099 120.5 19Z" fill="#3C3C3C" stroke="black"/>
<path id="Ellipse 11" d="M123.5 19C123.5 22.2901 123.222 25.2543 122.778 27.3833C122.556 28.4519 122.297 29.2836 122.025 29.8361C121.888 30.1132 121.761 30.2942 121.653 30.3995C121.602 30.4505 121.562 30.4762 121.537 30.4886C121.513 30.5 121.502 30.5 121.5 30.5C121.498 30.5 121.487 30.5 121.463 30.4886C121.438 30.4762 121.398 30.4505 121.347 30.3995C121.239 30.2942 121.112 30.1132 120.975 29.8361C120.703 29.2836 120.444 28.4519 120.222 27.3833C119.778 25.2543 119.5 22.2901 119.5 19C119.5 15.7099 119.778 12.7457 120.222 10.6167C120.444 9.54808 120.703 8.71637 120.975 8.16395C121.112 7.88676 121.239 7.70575 121.347 7.60051C121.398 7.54948 121.438 7.52376 121.463 7.5114C121.487 7.50004 121.498 7.5 121.5 7.5C121.502 7.5 121.513 7.50004 121.537 7.5114C121.562 7.52376 121.602 7.54948 121.653 7.60051C121.761 7.70575 121.888 7.88676 122.025 8.16395C122.297 8.71637 122.556 9.54808 122.778 10.6167C123.222 12.7457 123.5 15.7099 123.5 19Z" fill="#3C3C3C" stroke="black"/>
<path id="Ellipse 12" d="M126.5 19C126.5 22.2901 126.222 25.2543 125.778 27.3833C125.556 28.4519 125.297 29.2836 125.025 29.8361C124.888 30.1132 124.761 30.2942 124.653 30.3995C124.602 30.4505 124.562 30.4762 124.537 30.4886C124.513 30.5 124.502 30.5 124.5 30.5C124.498 30.5 124.487 30.5 124.463 30.4886C124.438 30.4762 124.398 30.4505 124.347 30.3995C124.239 30.2942 124.112 30.1132 123.975 29.8361C123.703 29.2836 123.444 28.4519 123.222 27.3833C122.778 25.2543 122.5 22.2901 122.5 19C122.5 15.7099 122.778 12.7457 123.222 10.6167C123.444 9.54808 123.703 8.71637 123.975 8.16395C124.112 7.88676 124.239 7.70575 124.347 7.60051C124.398 7.54948 124.438 7.52376 124.463 7.5114C124.487 7.50004 124.498 7.5 124.5 7.5C124.502 7.5 124.513 7.50004 124.537 7.5114C124.562 7.52376 124.602 7.54948 124.653 7.60051C124.761 7.70575 124.888 7.88676 125.025 8.16395C125.297 8.71637 125.556 9.54808 125.778 10.6167C126.222 12.7457 126.5 15.7099 126.5 19Z" fill="#3C3C3C" stroke="black"/>
<path id="Ellipse 13" d="M129.5 19C129.5 22.2901 129.222 25.2543 128.778 27.3833C128.556 28.4519 128.297 29.2836 128.025 29.8361C127.888 30.1132 127.761 30.2942 127.653 30.3995C127.602 30.4505 127.562 30.4762 127.537 30.4886C127.513 30.5 127.502 30.5 127.5 30.5C127.498 30.5 127.487 30.5 127.463 30.4886C127.438 30.4762 127.398 30.4505 127.347 30.3995C127.239 30.2942 127.112 30.1132 126.975 29.8361C126.703 29.2836 126.444 28.4519 126.222 27.3833C125.778 25.2543 125.5 22.2901 125.5 19C125.5 15.7099 125.778 12.7457 126.222 10.6167C126.444 9.54808 126.703 8.71637 126.975 8.16395C127.112 7.88676 127.239 7.70575 127.347 7.60051C127.398 7.54948 127.438 7.52376 127.463 7.5114C127.487 7.50004 127.498 7.5 127.5 7.5C127.502 7.5 127.513 7.50004 127.537 7.5114C127.562 7.52376 127.602 7.54948 127.653 7.60051C127.761 7.70575 127.888 7.88676 128.025 8.16395C128.297 8.71637 128.556 9.54808 128.778 10.6167C129.222 12.7457 129.5 15.7099 129.5 19Z" fill="#3C3C3C" stroke="black"/>
<path id="Ellipse 14" d="M132.5 19C132.5 22.2901 132.222 25.2543 131.778 27.3833C131.556 28.4519 131.297 29.2836 131.025 29.8361C130.888 30.1132 130.761 30.2942 130.653 30.3995C130.602 30.4505 130.562 30.4762 130.537 30.4886C130.513 30.5 130.502 30.5 130.5 30.5C130.498 30.5 130.487 30.5 130.463 30.4886C130.438 30.4762 130.398 30.4505 130.347 30.3995C130.239 30.2942 130.112 30.1132 129.975 29.8361C129.703 29.2836 129.444 28.4519 129.222 27.3833C128.778 25.2543 128.5 22.2901 128.5 19C128.5 15.7099 128.778 12.7457 129.222 10.6167C129.444 9.54808 129.703 8.71637 129.975 8.16395C130.112 7.88676 130.239 7.70575 130.347 7.60051C130.398 7.54948 130.438 7.52376 130.463 7.5114C130.487 7.50004 130.498 7.5 130.5 7.5C130.502 7.5 130.513 7.50004 130.537 7.5114C130.562 7.52376 130.602 7.54948 130.653 7.60051C130.761 7.70575 130.888 7.88676 131.025 8.16395C131.297 8.71637 131.556 9.54808 131.778 10.6167C132.222 12.7457 132.5 15.7099 132.5 19Z" fill="#3C3C3C" stroke="black"/>
<path id="Ellipse 15" d="M135.5 19C135.5 22.2901 135.222 25.2543 134.778 27.3833C134.556 28.4519 134.297 29.2836 134.025 29.8361C133.888 30.1132 133.761 30.2942 133.653 30.3995C133.602 30.4505 133.562 30.4762 133.537 30.4886C133.513 30.5 133.502 30.5 133.5 30.5C133.498 30.5 133.487 30.5 133.463 30.4886C133.438 30.4762 133.398 30.4505 133.347 30.3995C133.239 30.2942 133.112 30.1132 132.975 29.8361C132.703 29.2836 132.444 28.4519 132.222 27.3833C131.778 25.2543 131.5 22.2901 131.5 19C131.5 15.7099 131.778 12.7457 132.222 10.6167C132.444 9.54808 132.703 8.71637 132.975 8.16395C133.112 7.88676 133.239 7.70575 133.347 7.60051C133.398 7.54948 133.438 7.52376 133.463 7.5114C133.487 7.50004 133.498 7.5 133.5 7.5C133.502 7.5 133.513 7.50004 133.537 7.5114C133.562 7.52376 133.602 7.54948 133.653 7.60051C133.761 7.70575 133.888 7.88676 134.025 8.16395C134.297 8.71637 134.556 9.54808 134.778 10.6167C135.222 12.7457 135.5 15.7099 135.5 19Z" fill="#3C3C3C" stroke="black"/>
<path id="Ellipse 16" d="M138.5 19C138.5 22.2901 138.222 25.2543 137.778 27.3833C137.556 28.4519 137.297 29.2836 137.025 29.8361C136.888 30.1132 136.761 30.2942 136.653 30.3995C136.602 30.4505 136.562 30.4762 136.537 30.4886C136.513 30.5 136.502 30.5 136.5 30.5C136.498 30.5 136.487 30.5 136.463 30.4886C136.438 30.4762 136.398 30.4505 136.347 30.3995C136.239 30.2942 136.112 30.1132 135.975 29.8361C135.703 29.2836 135.444 28.4519 135.222 27.3833C134.778 25.2543 134.5 22.2901 134.5 19C134.5 15.7099 134.778 12.7457 135.222 10.6167C135.444 9.54808 135.703 8.71637 135.975 8.16395C136.112 7.88676 136.239 7.70575 136.347 7.60051C136.398 7.54948 136.438 7.52376 136.463 7.5114C136.487 7.50004 136.498 7.5 136.5 7.5C136.502 7.5 136.513 7.50004 136.537 7.5114C136.562 7.52376 136.602 7.54948 136.653 7.60051C136.761 7.70575 136.888 7.88676 137.025 8.16395C137.297 8.71637 137.556 9.54808 137.778 10.6167C138.222 12.7457 138.5 15.7099 138.5 19Z" fill="#3C3C3C" stroke="black"/>
<path id="Ellipse 17" d="M141.5 19C141.5 22.2901 141.222 25.2543 140.778 27.3833C140.556 28.4519 140.297 29.2836 140.025 29.8361C139.888 30.1132 139.761 30.2942 139.653 30.3995C139.602 30.4505 139.562 30.4762 139.537 30.4886C139.513 30.5 139.502 30.5 139.5 30.5C139.498 30.5 139.487 30.5 139.463 30.4886C139.438 30.4762 139.398 30.4505 139.347 30.3995C139.239 30.2942 139.112 30.1132 138.975 29.8361C138.703 29.2836 138.444 28.4519 138.222 27.3833C137.778 25.2543 137.5 22.2901 137.5 19C137.5 15.7099 137.778 12.7457 138.222 10.6167C138.444 9.54808 138.703 8.71637 138.975 8.16395C139.112 7.88676 139.239 7.70575 139.347 7.60051C139.398 7.54948 139.438 7.52376 139.463 7.5114C139.487 7.50004 139.498 7.5 139.5 7.5C139.502 7.5 139.513 7.50004 139.537 7.5114C139.562 7.52376 139.602 7.54948 139.653 7.60051C139.761 7.70575 139.888 7.88676 140.025 8.16395C140.297 8.71637 140.556 9.54808 140.778 10.6167C141.222 12.7457 141.5 15.7099 141.5 19Z" fill="#3C3C3C" stroke="black"/>
<rect id="Rectangle 4" x="47.5" y="8.5" width="41" height="21" fill="#A4A4A4" stroke="black"/>
<path id="Rectangle 5" d="M46.5 29.45C45.3589 29.2184 44.5 28.2095 44.5 27V11C44.5 9.79052 45.3589 8.78164 46.5 8.55001V29.45Z" fill="#3C3C3C" stroke="black"/>
<rect id="Rectangle 6" x="15.5" y="10.5" width="5" height="17" fill="#A4A4A4" stroke="black"/>
<rect id="Rectangle 7" x="7.5" y="7.5" width="7" height="23" fill="#A4A4A4" stroke="black"/>
<path id="Rectangle 8" d="M6.5 28.45C5.35888 28.2184 4.5 27.2095 4.5 26V12C4.5 10.7905 5.35888 9.78164 6.5 9.55001V28.45Z" fill="#A4A4A4" stroke="black"/>
<path id="Rectangle 9" d="M2 11.5H4.5V26.5H2C1.17157 26.5 0.5 25.8284 0.5 25V13C0.5 12.1716 1.17157 11.5 2 11.5Z" fill="#A4A4A4" stroke="black"/>
<path id="Rectangle 17" d="M188 3.5H192.5V34.5H188C187.724 34.5 187.5 34.2761 187.5 34V4C187.5 3.72386 187.724 3.5 188 3.5Z" fill="#C4C4C4" stroke="black"/>
<rect id="Rectangle 18" x="193.5" y="0.5" width="1" height="37" rx="0.5" fill="#C4C4C4" stroke="black"/>
</g>
</g>
</svg>
